# xmcd
#
# Track frame offsets:
#	150
#	20463
#	43514
#	60928
#	74656
#	88841
#	111386
#	129542
#	147990
#	165336
#	185446
#	204272
#	218594
#	238537
#	257217
#
# Disc length: 3967 seconds
#
# Revision: 0
# Processed by: cddbd v1.5.2PL0 Copyright (c) Steve Scherf et al.
# Submitted via: EZCDAudioConverter 5.0.0.1
#
DISCID=d40f7d0f
DTITLE=Billy Ray Cyrus - Thin Line
DYEAR=2016
DGENRE=Country
TTITLE0=Thin Line
TTITLE1=Lovin' Her Was Easier
TTITLE2=They're Playing Our Song
TTITLE3=My Heroes Have Always Been Cowboys
TTITLE4=Stop Pickin' On Willie
TTITLE5=Sunday Morning Coming Down
TTITLE6=Tulsa Time
TTITLE7=Hillbilly On
TTITLE8=Killing The Blues
TTITLE9=I've Always Been Crazy
TTITLE10=Hey Elvis
TTITLE11=Help Me Make It Through The Night
TTITLE12=Hope
TTITLE13=Going Where The Lonely Go
TTITLE14=Angels Protect This Home
EXTD=
EXTT0=
EXTT1=
EXTT2=
EXTT3=
EXTT4=
EXTT5=
EXTT6=
EXTT7=
EXTT8=
EXTT9=
EXTT10=
EXTT11=
EXTT12=
EXTT13=
EXTT14=
PLAYORDER=
